<svg xmlns="http://www.w3.org/2000/svg" viewBox="0 0 24 24" fill="currentColor" role="img" aria-label="Claude"><path d="M4.709 15.955l4.72-2.647.08-.23-.08-.128H9.2l-.79-.048-2.698-.073-2.339-.097-2.266-.122-.571-.121L0 11.784l.055-.352.48-.321.686.06 1.52.103 2.278.158 1.652.097 2.449.255h.389l.055-.157-.134-.098-.103-.097-2.358-1.596-2.552-1.688-1.336-.972-.722-.491-.365-.462-.158-1.008.656-.722.881.06.225.061 1.236.953 2.642 2.043 3.453 2.539.504.42.201-.142.026-.101-.227-.379-1.875-3.392-2-3.448-.891-1.428-.236-.86c-.083-.354-.142-.65-.142-1.013l.747-1.014L8.234 0l1.014.137.422.367.625 1.428 1.012 2.252 1.575 3.066.46.911.246.844.092.26h.16V8.95l.13-1.735.242-2.13.236-2.74.082-.77.385-.929.766-.504.6.286.491.704-.069.456-.295 1.915-.576 2.991-.375 2.006h.218l.249-.249 1.007-1.336 1.69-2.111.745-.84.87-.925.558-.443h1.057l.778 1.156-.348 1.193-1.09 1.378-.903 1.169-1.296 1.74-.81 1.394.075.111.193-.018 2.93-.624 1.583-.286 1.889-.323.853.401.093.405-.336.825-2.013.498-2.36.471-3.516.83-.043.03.05.061 1.583.149.678.036h1.66l3.09.231.81.534.484.654-.08.499-1.246.635-1.681-.398-3.92-.93-1.343-.336h-.187v.111l1.117 1.094 2.05 1.846 2.566 2.388.13.59-.33.464-.346-.05-2.265-1.696-.874-.766-1.973-1.662h-.13v.172l.454.666 2.398 3.604.124 1.107-.174.36-.62.219-.682-.124-1.402-1.969-1.444-2.207-1.166-1.985-.143.083-.69 7.42-.323.379-.747.286-.621-.473-.33-.766.33-1.515.398-1.973.323-1.567.293-1.945.174-.646-.012-.044-.143.018-1.477 2.026-2.246 3.03-1.78 1.904-.426.168-.738-.383.068-.682.412-.607 2.453-3.122 1.479-1.933.957-1.117-.006-.162h-.057L4.255 18.86l-1.156.15-.498-.466.062-.764.236-.25 1.953-1.343-.001-.001z"></path></svg>